<?xml version="1.0" encoding="UTF-8" standalone="no"?>
<svg width="295px" height="324px" viewBox="0 0 295 324" version="1.1" xmlns="http://www.w3.org/2000/svg" xmlns:xlink="http://www.w3.org/1999/xlink" xmlns:sketch="http://www.bohemiancoding.com/sketch/ns">
    <title>Untitled</title>
    <description>Created with Sketch (http://www.bohemiancoding.com/sketch)</description>
    <defs></defs>
    <g id="Page-1" stroke="none" stroke-width="1" fill="none" fill-rule="evenodd" sketch:type="MSPage">
        <g id="yeti-8" sketch:type="MSLayerGroup" transform="translate(-6.000000, 1.000000)">
            <g id="Group" sketch:type="MSShapeGroup">
                <path d="M16.657,172.703 C16.657,172.703 8.595,175.305 7.353,183.399 C6.98,184.76 6.49,187.088 6.573,189.73 L7.547,188.917 C7.609,189.229 7.671,189.539 7.751,189.861 C10.682,201.703 19.538,208.917 19.538,208.917 L19.8,202.172 C19.8,202.172 28.182,214.614 39.577,216.186 C39.577,216.186 35.255,208.327 34.469,206.363 C34.469,206.363 33.684,201.648 34.077,200.076 C34.077,200.076 45.472,206.756 54.902,199.684 C54.902,199.684 59.143,201.221 66.311,202.751 C65.385,203.307 64.005,204.313 63.153,205.775 C63.153,205.775 71.6,204.153 78.476,204.792 C78.704,204.813 78.899,204.83 79.073,204.843 C81.074,205.075 83.17,205.277 85.352,205.431 C86.138,205.529 87.492,205.526 87.563,205.529 C95.224,205.823 104.016,204.988 104.016,204.988 L114.625,150.962 L95.665,154.692 C94.235,154.673 87.979,154.511 85.55,153.123 C85.55,153.123 85.401,154.957 87.389,156.199 C81.699,156.986 76.492,157.451 70.096,157.773 L66.43,155.547 L66.692,157.773 C62.333,156.943 54.669,155.271 51.564,152.73 C51.564,152.73 54.115,156.726 57.392,158.166 C52.621,158.097 48.291,157.808 43.509,157.249 C20.458,154.551 12.362,147.924 11.543,149.028 C10.724,150.132 11.543,169.892 16.657,172.703 L16.657,172.703 Z" id="Shape" fill="#E9F6FD"></path>
                <path d="M123.119,97.524 C117.037,95.953 105.811,92.058 99.588,83.676 C90.768,71.791 92.814,58.81 92.814,58.81 C92.814,58.81 105.458,73.483 124.232,75.576 C123.218,82.839 123.046,90.183 123.119,97.524 L123.119,97.524 Z" id="Shape" fill="#5B5A5D"></path>
                <path d="M123.285,86.158 C99.352,81.151 92.814,58.81 92.814,58.81 C92.814,58.81 105.458,73.483 124.232,75.576 C123.743,79.088 123.449,82.618 123.285,86.158 L123.285,86.158 Z" id="Shape" fill="#737F82"></path>
                <ellipse id="Oval" fill="#E4E4E4" cx="173.391" cy="309.359" rx="117.391" ry="13.359"></ellipse>
                <path d="M96.682,194.051 C96.682,194.051 97.284,200.278 99.017,205.344 C104.518,205.256 110.291,204.859 116.197,204.005 C118.96,203.606 121.321,202.952 123.342,202.095 C125.451,194.253 129.04,179.923 129.52,167.992 C126.382,160.11 122.172,153.046 119.734,149.389 C119.734,149.389 114.951,150.871 107.16,152.617 L100.613,157.379 C100.613,157.379 105.851,164.189 108.995,165.761 C108.995,165.761 105.327,180.43 94.064,186.455 C94.064,186.455 96.422,193.003 99.827,194.575 L96.682,194.051 L96.682,194.051 Z" id="Shape" fill="#CCE9F4"></path>
                <path d="M114.234,300.812 C114.268,301.046 114.235,301.232 114.246,301.594 L114.402,303.206 L121.045,303.206 L122.075,303.374 L122.093,305.77 C132.834,305.049 148.701,304.367 156.482,304.459 C158.201,304.4 159.922,304.362 161.647,304.357 C167.206,304.344 172.788,304.498 178.347,304.628 C182.418,304.723 186.492,304.986 190.515,305.605 C190.881,300.562 191.609,288.839 191.425,277.264 C191.181,261.942 175.847,269.047 175.847,269.047 C174.841,269.015 173.851,268.989 172.876,268.97 C169.934,268.493 160.08,266.996 153.948,267.228 C153.948,267.228 155.38,268.374 155.871,269.442 C149.415,269.98 143.975,270.924 139.395,272.166 L129.559,271.98 L131.846,273.325 C126.316,274.119 119.679,275.101 117.466,275.962 C117.466,275.962 119.319,276.254 119.948,276.908 C117.459,278.178 113.615,280.685 109.812,285.367 C109.812,285.367 111.004,284.957 112.081,284.661 C109.045,289.171 108.361,293.868 108.334,297.589 C108.125,298.665 107.844,299.912 107.51,301.107 C109.75,301.038 111.99,300.827 114.234,300.812 L114.234,300.812 Z" id="Shape" fill="#9FD3E8"></path>
                <path d="M130.065,277.262 C130.065,277.262 111.44,281.686 111.207,300.967 C112.196,300.929 113.184,300.896 114.174,300.889 C114.059,298.669 113.88,283.515 130.065,277.262 L130.065,277.262 Z" id="Shape" fill="#84BFCD"></path>
                <path d="M109.12,55.417 C107.997,54.93 105.46,53.968 102.452,53.729 C102.452,53.729 109.264,60.038 113.555,68.215 C117.693,79.184 118.251,94.709 120.238,110.302 C118.647,109.275 116.85,108.656 116.85,108.656 C120.605,112.207 121.293,123.537 121.412,128.817 C119.922,136.822 120.899,145.71 119.624,148.111 C117.358,152.382 114.33,154.976 112.884,155.727 C112.884,155.727 115.549,160.081 118.135,160.33 C118.135,160.33 119.306,174.795 117.816,177.93 C116.325,181.063 111.761,186.146 109.523,187.818 C109.523,187.818 115.065,193.482 118.489,193.454 C118.489,193.454 117.912,200.368 116.755,202.181 C115.598,203.993 112.174,200.992 112.174,200.992 C112.174,200.992 113.217,206.433 113.906,208.296 C114.79,210.685 115.516,213.845 114.998,215.612 C114.481,217.379 112.12,227.337 112.075,232.747 C112.03,238.157 113.598,242.157 113.598,242.157 C113.598,242.157 114.877,239.038 116.537,238.271 C116.537,238.271 117.331,249.462 120.239,254.231 C123.147,258.999 127.364,264.108 128.933,265.077 C128.933,265.077 127.806,261.264 128.748,259.467 C128.748,259.467 129.388,261.238 131.183,263.316 C135.874,269.139 146.728,280.772 193.013,270.605 L189.654,270.104 C199.017,267.993 208.894,263.814 220.16,256.106 C248.948,236.41 242.914,172.573 244.486,130.727 C244.441,130.725 244.398,130.721 244.354,130.719 C244.251,126.736 244.367,124.317 244.81,123.216 C246.184,119.799 253.566,113.341 253.566,113.341 C249.553,112.069 245.572,112.659 245.572,112.659 C245.961,102.846 242.137,59.369 240.295,52.897 C234.917,34.014 221.309,20.338 221.309,20.338 C221.309,20.338 222.222,32.079 220.966,35.933 C220.966,35.933 202.971,7.955 173.287,-0.469 C173.287,-0.469 180.428,12.194 180.792,19.488 C180.792,19.488 161.999,1.234 128.956,5.492 C128.956,5.492 135.958,13.797 136.853,21.617 L119.407,24.064 L126.666,37.166 C126.666,37.166 110.62,32.076 100.774,39.038 C100.774,39.036 104.509,44.912 109.12,55.417 L109.12,55.417 Z" id="Shape" fill="#E9F6FD"></path>
                <path d="M121.813,207.9 C121.813,207.93 121.819,207.941 121.831,207.933 C121.861,207.912 121.847,207.903 121.813,207.9 L121.813,207.9 Z" id="Shape" fill="#B2E1EE"></path>
                <ellipse id="Oval" fill="#CCE9F4" cx="145.513" cy="143.775" rx="8.513" ry="10.775"></ellipse>
                <ellipse id="Oval" fill="#FFFFFF" cx="145.383" cy="141.609" rx="8.383" ry="10.609"></ellipse>
                <path d="M149.989,141.334 C149.989,144.101 148.185,146.343 145.961,146.343 C143.736,146.343 141.933,144.1 141.933,141.334 C141.933,139.999 142.356,138.789 143.04,137.892 C143.224,139.152 144.108,140.11 145.175,140.11 C146.376,140.11 147.35,138.9 147.35,137.405 C147.35,137.118 147.304,136.847 147.237,136.586 C148.837,137.249 149.989,139.122 149.989,141.334 L149.989,141.334 Z" id="Shape" fill="#4E4D50"></path>
                <ellipse id="Oval" fill="#CCE9F4" cx="185.513" cy="143.775" rx="8.513" ry="10.775"></ellipse>
                <path d="M168.969,309.446 L183.226,309.352 L184.599,313.086 L194.049,312.618 L194.038,315.213 L210.521,315.048 C210.521,315.048 211.058,315.024 211.952,315.016 L228.838,314.081 C229.25,314.077 229.609,315.061 229.94,313.876 L241.803,313.876 C247.304,313.876 247.034,305.968 247.034,305.968 L245.398,290.956 C246.621,291.252 247.631,290.251 247.631,290.251 C246.008,288.922 244.828,283.714 244.342,281.204 L241.149,251.744 C241.149,251.744 234.83,230.756 222.256,243.329 C209.683,255.902 188.433,269.293 188.433,269.293 L189.153,281.802 C189.793,281.909 190.477,281.427 191.117,281.54 C194.472,281.757 197.875,284.096 201.148,284.911 C202.011,285.126 202.885,285.361 203.762,285.61 C203.386,285.578 203.015,285.547 202.638,285.515 C194.038,284.798 188.194,285.948 179.556,286.149 L177.22,286.134 C172.022,286.835 167.809,292.664 168.969,309.446 L168.969,309.446 Z" id="Shape" fill="#CCE9F4"></path>
                <ellipse id="Oval" fill="#FFFFFF" cx="185.383" cy="141.609" rx="8.383" ry="10.609"></ellipse>
                <path d="M190.853,140.548 C190.853,143.315 189.05,145.557 186.825,145.557 C184.6,145.557 182.797,143.314 182.797,140.548 C182.797,139.213 183.22,138.003 183.904,137.106 C184.088,138.366 184.972,139.324 186.039,139.324 C187.24,139.324 188.214,138.114 188.214,136.619 C188.214,136.332 188.168,136.061 188.101,135.8 C189.7,136.463 190.853,138.336 190.853,140.548 L190.853,140.548 Z" id="Shape" fill="#4E4D50"></path>
                <path d="M191.181,109.155 C198.828,110.087 198.268,118.426 198.268,118.426 C192.848,110.039 183.38,114.556 183.38,114.556 C183.38,114.556 183.533,108.222 191.181,109.155 L191.181,109.155 Z" id="Shape" fill="#9FD3E8"></path>
                <path d="M218.901,133.976 C215.436,132.51 211.385,131.994 211.385,131.994 C207.588,131.439 200.963,130.81 193.009,131.216 C182.658,131.748 173.791,133.185 168.493,134.043 C166.912,134.299 165.669,134.501 164.721,134.626 L163.686,134.767 C161.563,135.057 160.769,135.166 159.575,134.992 C158.966,134.903 158.243,134.743 157.122,134.476 C156.773,134.394 156.401,134.304 156.002,134.206 C154.001,133.719 151.514,133.111 148.393,132.656 C145.002,132.161 141.683,131.966 138.245,132.06 C130.42,132.27 124.902,133.241 122.31,133.8 C121.684,133.935 121.218,134.239 120.889,134.727 C120.358,135.513 120.286,136.563 120.257,137.693 L120.253,141.23 C120.322,142.724 121.454,143.397 122.314,143.959 C122.932,144.366 123.211,144.893 123.351,145.909 C123.381,146.114 124.117,150.929 125.003,153.81 C125.766,156.263 127.511,158.065 133.419,158.926 C134.531,159.088 135.806,159.213 137.18,159.301 C147.013,159.929 150.514,158.935 153.525,156.879 C156.358,154.946 157.598,148.213 158.192,144.978 C158.276,144.522 158.402,143.85 158.44,143.732 C158.542,143.438 158.613,143.162 158.682,142.881 C158.86,142.152 158.862,142.152 159.61,142.08 C160.605,141.989 161.445,141.991 162.11,142.087 C163.069,142.228 163.316,142.518 163.369,142.603 C163.662,143.084 164.003,144.476 164.335,145.822 C164.566,146.76 164.804,147.727 165.079,148.648 L165.311,149.445 C166.089,152.146 167.263,156.229 169.459,157.851 C170.968,158.966 174.916,160.142 179.282,160.78 C182.225,161.208 185.137,161.366 187.701,161.233 C194.598,160.877 201.436,159.867 204.326,158.777 C207.269,157.671 207.999,155.827 208.737,152.688 C208.835,152.262 208.927,151.872 209.025,151.471 L209.046,151.223 C209.046,151.223 210.339,143.243 211.004,137.033 C214.58,137.51 218.241,138.382 218.241,138.382 L218.901,133.976 L218.901,133.976 Z M154.342,141.054 C154.459,143.544 154.066,146.411 153.102,150.077 C152.053,154.059 151.621,154.248 150.193,154.877 C148.486,155.629 143.03,156.113 137.192,155.588 C131.65,155.084 128.787,153.45 128.052,152.319 C127.419,151.341 126.007,140.126 126.117,137.91 C126.138,137.451 126.252,137.317 126.301,137.259 C126.917,136.522 129.498,136.256 131.941,136.091 C136.697,135.771 143.545,136.654 146.122,136.985 L146.574,137.042 C146.786,137.069 146.995,137.098 147.199,137.127 C151.714,137.786 154.252,139.18 154.342,141.054 L154.342,141.054 Z M206.961,139.018 C206.858,141.172 205.472,151.214 204.75,153.387 C204.217,154.994 202.402,155.422 197.234,156.422 L196.883,156.49 C191.818,157.463 182.765,157.336 177.807,156.612 C177.594,156.581 177.387,156.549 177.191,156.516 C172.594,155.74 172.071,155.146 170.593,152.763 C169.066,150.297 168.129,143.058 167.956,141.631 L167.947,141.558 C167.763,140.05 167.673,139.294 169.611,138.426 C172.218,137.257 183.788,135.624 188.53,135.41 C192.273,135.245 200.207,135.767 203.836,136.297 C204.405,136.38 204.827,136.457 205.087,136.526 C205.503,136.635 207.039,137.383 206.961,139.018 L206.961,139.018 Z" id="Shape" fill="#5B5A5D"></path>
                <path d="M194.75,97.487 C201.015,99.167 199.708,106.122 199.708,106.122 C195.709,98.16 186.931,102.303 186.931,102.303 C186.931,102.303 188.487,95.807 194.75,97.487 L194.75,97.487 Z" id="Shape" fill="#9FD3E8"></path>
                <path d="M144.973,119.402 C139.034,120.126 139.468,126.603 139.468,126.603 C143.677,120.089 151.031,123.597 151.031,123.597 C151.031,123.597 150.913,118.678 144.973,119.402 L144.973,119.402 Z" id="Shape" fill="#9FD3E8"></path>
                <path d="M142.201,109.12 C137.335,110.424 138.35,115.827 138.35,115.827 C141.456,109.644 148.274,112.861 148.274,112.861 C148.274,112.861 147.066,107.816 142.201,109.12 L142.201,109.12 Z" id="Shape" fill="#9FD3E8"></path>
                <path d="M173.288,-0.47 C173.288,-0.47 176.362,4.982 178.58,10.792 C184.427,14.852 216.194,36.825 223.209,56.654 C223.209,56.654 228.586,50.347 227.876,45.658 C227.876,45.658 229.168,51.732 230.582,63.532 C226.503,62.534 216.163,60.094 210.857,59.67 C210.857,59.67 215.681,71.731 215.681,75.752 C215.681,75.752 210.587,75.484 207.639,75.752 C207.639,75.752 212.577,83.106 217.126,92.224 L212.722,93.985 C212.722,93.985 216.128,99.224 225.557,114.679 C230.272,125.944 232.63,130.92 233.875,145.851 C233.875,145.851 244.615,145.719 247.561,147.291 L254.503,138.581 L249.395,138.778 C249.395,138.778 252.145,128.758 254.7,125.811 C254.7,125.811 248.02,128.169 246.842,130.33 C246.842,130.33 246.556,123.658 247.454,119.403 C250.082,116.386 253.567,113.337 253.567,113.337 C249.554,112.065 245.573,112.655 245.573,112.655 C245.962,102.842 242.138,59.365 240.296,52.893 C234.918,34.01 221.31,20.334 221.31,20.334 C221.31,20.334 222.223,32.075 220.967,35.929 C220.967,35.932 202.972,7.952 173.288,-0.47 L173.288,-0.47 Z" id="Shape" fill="#CCE9F4"></path>
                <path d="M225.321,70.676 C224.865,70.605 221.876,75.889 222.195,84.11 C222.648,95.842 227.686,102.428 227.686,102.428 C227.686,102.428 226.842,96.368 227.676,93.751 C227.676,93.751 246.788,93.355 257.079,82.714 C267.367,72.072 267.022,58.937 267.022,58.937 C267.022,58.937 249.83,74.317 228.43,71.047 C228.43,71.046 226.058,70.791 225.321,70.676" id="Shape" fill="#5B5A5D"></path>
                <path d="M225.321,70.676 C221.721,76.301 222.196,81.64 222.196,81.64 C254.851,86.587 267.022,58.937 267.022,58.937 C267.022,58.937 249.83,74.317 228.43,71.047 C228.43,71.046 226.031,70.776 225.321,70.676" id="Shape" fill="#737F82"></path>
                <path d="M178.993,166.431 C178.993,166.431 173.044,166.252 171.365,164.737 C171.365,164.737 158.239,170.477 147.279,167.062 C147.279,167.063 163.751,185.441 178.993,166.431 L178.993,166.431 Z" id="Shape" fill="#5B5A5D"></path>
                <path d="M133.841,181.442 C134.6,186.955 138.335,193.063 138.335,193.063 C139.625,192.117 144.271,190.651 144.271,190.651 C146.645,195.882 153.608,202.671 153.608,202.671 C153.96,198.779 163.605,191.955 163.605,191.955 C164.06,192.786 164.998,193.808 165.9,194.686 C168.904,197.943 173.073,199.978 173.073,199.978 C178.54,195.231 178.181,186.52 178.181,186.52 C177.1,190.645 173.367,192.904 173.367,192.904 C172.199,192.644 170.995,192.023 170.011,191.409 L170.026,191.366 C167.301,190.027 165.621,186.414 165.621,186.414 C159.117,186.835 152.54,192.764 152.54,192.764 C149.492,189.517 148.824,182.928 148.824,182.928 C145.756,183.409 140.561,186.901 140.561,186.901 C138.332,185.731 133.841,181.441 133.841,181.442 L133.841,181.442 Z" id="Shape" fill="#B1DDEE"></path>
                <path d="M242.325,142.579 L233.877,145.853 C242.587,147.555 253.589,156.854 253.589,156.854" id="Shape" fill="#BEE4F2"></path>
                <path d="M155.096,274.533 C155.096,274.533 209.32,279.052 231.323,244.474 C247.432,217.167 243.11,199.092 243.11,199.092 C243.11,199.092 232.894,194.573 229.948,192.412 C229.948,192.412 230.368,196.618 229.526,205.597 L229.751,204.396 C229.751,204.396 230.668,210.29 230.013,214.219 L228.612,213.119 C226.796,225.175 224.412,237.529 216.13,245.522 C216.13,245.522 206.373,250.957 202.051,251.349 L206.568,252.856 C206.568,252.856 187.447,265.232 175.135,265.494 C175.135,265.494 177.748,267.149 181.291,267.393 C169.326,272.423 159.725,274.433 155.096,274.533 L155.096,274.533 Z" id="Shape" fill="#CCE9F4"></path>
                <path d="M267.569,238.484 C272.545,231.935 274.838,222.767 274.838,222.767 C276.148,223.553 276.999,226.99 276.999,226.99 C281.714,217.822 281.027,203.514 281.027,203.514 C283.384,203.776 286.626,205.478 286.626,205.478 C285.578,202.858 278.964,196.244 278.964,196.244 C281.584,195.982 283.679,196.146 283.679,196.146 C280.537,191.955 266.195,177.973 266.195,177.973 C269.599,176.663 274.053,176.107 274.053,176.107 C268.552,169.296 243.373,147.947 243.373,147.947 C242.949,146.675 242.759,145.621 242.768,144.757 C236.317,151.41 231.296,192.782 238.789,197.324 C245.272,201.254 248.415,203.611 248.415,203.611 C234.132,215.854 227.59,225.026 226.91,237.728 C226.762,238.988 226.987,240.171 227.443,241.285 C227.547,241.52 227.66,241.766 227.777,242.02 C228.158,242.769 228.62,243.49 229.13,244.179 C230.205,245.63 231.356,246.954 232.112,248.613 C232.794,250.108 232.822,251.849 233.2,253.433 C233.728,255.639 235.635,257.123 237.112,258.709 C237.898,259.553 238.479,260.495 239.023,261.472 C238.843,260.073 238.366,258.225 237.687,256.218 C251.18,257.97 263.009,244.485 267.569,238.484 L267.569,238.484 Z" id="Shape" fill="#E9F6FD"></path>
                <path d="M244.68,265.041 C261.444,272.113 274.28,264.255 274.28,264.255 L271.136,263.993 C285.019,257.444 286.067,241.465 286.067,241.465 C281.091,246.704 276.375,247.752 276.375,247.752 C280.043,244.348 280.305,238.06 280.305,238.06 L274.837,241.628 C283.776,233.377 294.712,212.388 294.712,212.388 C296.284,212.127 300.999,213.436 300.999,213.436 C299.689,204.53 291.307,200.077 291.307,200.077 C293.141,198.767 298.117,199.291 298.117,199.291 C295.759,195.623 282.4,183.574 282.4,183.574 C284.233,182.788 291.83,183.312 291.83,183.312 C285.281,175.454 261.445,156.594 261.445,156.594 L266.683,152.926 L243.894,144.675 L244.418,143.759 C243.855,143.86 243.303,144.207 242.766,144.761 C242.757,145.625 243.305,147.721 243.796,149.489 C243.796,149.489 250.377,153.319 273.234,175.977 C273.234,175.977 268.52,176.239 265.114,177.549 C265.114,177.549 279.522,191.695 282.666,195.886 C282.666,195.886 280.312,195.624 277.692,195.886 C277.692,195.886 284.771,202.172 285.819,204.792 C285.819,204.792 282.688,203.22 280.331,202.958 C280.331,202.958 281.666,216.84 276.95,226.009 C276.95,226.009 276.214,221.819 274.904,221.033 C274.904,221.033 271.858,231.509 266.881,238.059 C262.354,244.014 250.967,257.762 238.394,256.266 L238.394,256.264 C238.394,256.264 238.178,256.263 238.159,256.26 C236.894,256.115 235.43,255.836 234.109,255.398 C234.941,256.62 236.118,257.644 237.11,258.71 C238.317,260.007 239.052,261.526 239.891,263.066 C241.203,265.471 242.844,267.723 244.9,269.477 C244.039,267.626 244.683,265.037 244.68,265.041 L244.68,265.041 Z" id="Shape" fill="#CCE9F4"></path>
                <path d="M280.308,238.057 C280.865,243.33 276.378,247.749 276.378,247.749 C279.784,247.192 286.07,241.462 286.07,241.462 C280.209,264.382 252.672,258.881 252.672,258.881 C266.293,253.905 275.035,241.233 275.035,241.233 C277.393,239.759 280.308,238.058 280.308,238.057 L280.308,238.057 Z" id="Shape" fill="#AADAE1"></path>
                <path d="M19.539,208.916 C19.015,198.764 23.207,190.907 23.207,190.907 C23.207,190.907 23.601,196.145 25.827,202.432 C28.054,208.719 39.58,216.185 39.58,216.185 C39.58,216.185 36.568,209.637 35.39,207.279 C34.212,204.921 34.08,200.075 34.08,200.075 C36.96,201.909 45.737,206.231 54.905,199.683 C62.763,195.098 58.441,180.168 58.441,180.168 C55.506,180.522 52.73,180.591 50.096,180.457 C48.534,180.576 42.156,181.001 38.271,180.43 L41.604,179.219 C25.437,175.24 16.988,163.535 16.988,163.535 C16.988,163.535 18.848,169.393 22.685,174.275 C20.858,174.682 18.887,175.715 18.887,175.715 C1.99,185.144 19.541,208.916 19.539,208.916 L19.539,208.916 Z" id="Shape" fill="#CCE9F4"></path>
                <path d="M229.95,192.413 L229.655,203.71 C229.655,203.71 236.188,207.737 243.456,208.719 C243.456,208.719 244.106,204.296 243.288,199.932 C241.409,198.768 239.508,197.642 237.599,196.53 C234.749,195.156 231.542,193.524 229.95,192.413 L229.95,192.413 Z" id="Shape" fill="#AADAE1"></path>
                <path d="M243.896,277.087 C236.627,274.534 231.912,263.925 231.519,259.406 C231.126,254.887 228.507,243.427 228.507,243.427 C233.091,247.88 233.2,253.433 233.2,253.433 C235.078,262.391 242.914,267.658 242.914,267.658 L243.896,277.087 L243.896,277.087 Z" id="Shape" fill="#AADAE1"></path>
                <path d="M191.942,270.694 L192.686,282.524 C158.305,282.327 141.639,271.39 141.639,271.39 C164.822,279.346 191.943,270.694 191.942,270.694 L191.942,270.694 Z" id="Shape" fill="#90C9D9"></path>
                <path d="M12.47,155.919 C13.022,156.277 13.382,156.614 13.382,156.614 C21.865,169.812 36.114,174.921 36.114,174.921 L32.668,175.757 C36.112,176.799 52.744,177.726 52.744,177.726 C45.832,184.205 28.951,178.374 28.951,178.374 L32.321,177.695 C25.147,175.843 17.858,167.917 17.858,167.917 C15.894,165.58 13.062,158.138 12.47,155.919 L12.47,155.919 Z" id="Shape" fill="#AADAE1"></path>
                <g transform="translate(165.000000, 262.000000)" id="Shape" fill="#E9F6FD">
                    <path d="M33.086,34.849 C27.361,40.784 29.037,53.22 29.037,53.22 L35.054,53.163 C35.059,37.48 40.771,31.765 40.771,31.765 C40.222,31.771 39.705,31.815 39.205,31.876 C37.466,31.807 34.138,31.939 31.988,33.696 L33.086,34.849 L33.086,34.849 Z"></path>
                    <path d="M-0.439,47.728 L5.451,47.455 L7.768,47.435 C8.288,24.992 21.549,26.623 21.549,26.623 C20.987,26.854 20.472,27.198 19.994,27.615 C18.225,28.881 15.448,31.335 14.378,34.853 L16.19,34.813 C14.189,42.009 14.335,51.126 14.335,51.126 L21.004,51.086 C20.931,48.114 21.094,45.518 21.417,43.241 L22.964,43.861 C21.981,41.725 23.629,35.619 23.906,34.632 C25.94,30.459 28.409,28.8 29.122,28.386 L29.149,28.597 C29.149,28.597 34.893,24.299 43.977,25.541 C53.062,26.782 53.84,26.912 53.84,26.912 C53.84,26.912 52.489,25.794 50.343,24.609 L60.036,24.609 C60.036,24.609 59.055,6.488 58.072,-0.388 C58.072,-0.388 43.533,5.066 35.479,6.638 C34.94,6.743 34.495,6.911 34.124,7.12 C31.5,7.732 28.911,8.285 26.943,8.693 C26.962,11.835 27.361,16.292 27.672,20.12 C24.754,19.304 20.09,19.016 20.09,19.016 C21.268,19.801 21.284,21.546 21.284,21.546 C20.751,21.45 20.254,21.373 19.787,21.314 C19.363,21.286 18.937,21.262 18.513,21.224 C18.293,21.206 18.074,21.179 17.854,21.158 C15.547,21.1 13.956,21.556 11.668,22.062 L12.633,23.701 C8.842,23.738 6.407,26.306 4.842,29.739 C4.55,30.157 2.376,33.371 1.723,36.794 L2.908,36.218 C2.575,38.015 2.37,39.792 2.245,41.386 C1.975,42.352 1.106,45.081 0.013,46.637 C-0.111,47.014 -0.264,47.376 -0.439,47.728 L-0.439,47.728 Z M22.449,38.405 C22.859,37.025 23.333,35.826 23.836,34.777 L22.449,38.405 L22.449,38.405 Z"></path>
                </g>
                <path d="M120.07,296.169 C119.475,298.284 119.098,300.835 119.021,303.205 L121.042,303.205 L122.072,303.373 C122.072,303.373 120.887,284.398 140.071,279.901 C140.071,279.901 129.495,280.73 123.331,289.399 C122.391,290.362 119.682,293.314 118.555,296.535 L120.07,296.169 L120.07,296.169 Z" id="Shape" fill="#84BFCD"></path>
            </g>
        </g>
    </g>
</svg>